<svg xmlns="http://www.w3.org/2000/svg" viewBox="0 0 128 128" role="img" aria-labelledby="igloo-t">
  <title id="igloo-t">Igloo</title>
  <defs>
    <linearGradient id="ig-dome" x1="0" y1="0" x2="1" y2="1">
      <stop offset="0" stop-color="#FFFFFF"/>
      <stop offset="1" stop-color="#D2E1EF"/>
    </linearGradient>
    <linearGradient id="ig-door" x1="0" y1="0" x2="0" y2="1">
      <stop offset="0" stop-color="#B4CADC"/>
      <stop offset="1" stop-color="#8DA8C0"/>
    </linearGradient>
  </defs>
  <ellipse cx="64" cy="98" rx="46" ry="7" fill="#000000" fill-opacity="0.10"/>
  <path d="M20 92 A44 40 0 0 1 108 92 Z" fill="url(#ig-dome)" stroke="#A9C6DE" stroke-width="2"/>
  <ellipse cx="46" cy="62" rx="20" ry="12" transform="rotate(-20 46 62)" fill="#FFFFFF" fill-opacity="0.45"/>
  <g fill="none" stroke="#B4CFE4" stroke-width="2" stroke-linecap="round">
    <path d="M24 80 Q64 72 104 80"/>
    <path d="M28 66 Q64 59 100 66"/>
    <path d="M40 56 Q64 51 88 56"/>
    <path d="M44 90 L45 81"/>
    <path d="M64 91 L64 80"/>
    <path d="M84 90 L83 81"/>
    <path d="M53 78 L54 67"/>
    <path d="M75 78 L74 67"/>
    <path d="M54 64 L55 57"/>
    <path d="M74 64 L73 57"/>
  </g>
  <path d="M47 92 L47 78 A17 17 0 0 1 81 78 L81 92 Z" fill="url(#ig-dome)" stroke="#A9C6DE" stroke-width="2"/>
  <path d="M53 92 L53 79 A11 11 0 0 1 75 79 L75 92 Z" fill="url(#ig-door)"/>
  <path d="M47 78 A17 17 0 0 1 81 78" fill="none" stroke="#B4CFE4" stroke-width="1.6"/>
</svg>
