<svg xmlns="http://www.w3.org/2000/svg" viewBox="0 0 128 128" role="img" aria-labelledby="macaron-t">
  <title id="macaron-t">Macaron</title>
  <defs>
    <linearGradient id="mac-side" x1="0" y1="0" x2="1" y2="1">
      <stop offset="0" stop-color="#F2A7C1"/>
      <stop offset="1" stop-color="#DE7CA1"/>
    </linearGradient>
    <linearGradient id="mac-top" x1="0" y1="0" x2="1" y2="1">
      <stop offset="0" stop-color="#FBD1DF"/>
      <stop offset="1" stop-color="#F1A7C2"/>
    </linearGradient>
    <linearGradient id="mac-fill" x1="0" y1="0" x2="1" y2="1">
      <stop offset="0" stop-color="#FDEDCE"/>
      <stop offset="1" stop-color="#EFCC8E"/>
    </linearGradient>
  </defs>
  <ellipse cx="64" cy="93" rx="38" ry="6" fill="#000000" fill-opacity="0.10"/>
  <path d="M28 55 A36 7 0 0 0 100 55 L98 70 L30 70 Z" fill="url(#mac-fill)" stroke="#E3BC7C" stroke-width="0.8"/>
  <path d="M30 70 Q34.25 74.8 38.5 74.6 Q42.75 77.85 47 76.1 Q51.25 78.95 55.5 76.8 Q59.75 79.4 64 77 Q68.25 79.4 72.5 76.8 Q76.75 78.95 81 76.1 Q85.25 77.85 89.5 74.6 Q93.75 74.8 98 70 C101 82 86 89 64 89 C42 89 28 82 30 70 Z" fill="url(#mac-side)" stroke="#DA82A5" stroke-width="1.3"/>
  <path d="M29 42 A35 10 0 0 0 99 42 L100 55 Q95.5 59.8 91 59.6 Q86.5 62.85 82 61.1 Q77.5 63.95 73 61.8 Q68.5 64.4 64 62 Q59.5 64.4 55 61.8 Q50.5 63.95 46 61.1 Q41.5 62.85 37 59.6 Q32.5 59.8 28 55 Z" fill="url(#mac-side)" stroke="#DA82A5" stroke-width="1.3"/>
  <ellipse cx="64" cy="42" rx="35" ry="10" fill="url(#mac-top)" stroke="#DA82A5" stroke-width="1.2"/>
  <ellipse cx="53" cy="38" rx="15" ry="5" transform="rotate(-16 53 38)" fill="#FFFFFF" fill-opacity="0.45"/>
</svg>
